<?xml version="1.0" standalone="no"?>
<!DOCTYPE svg PUBLIC "-//W3C//DTD SVG 20010904//EN"
 "http://www.w3.org/TR/2001/REC-SVG-20010904/DTD/svg10.dtd">
<svg version="1.0" xmlns="http://www.w3.org/2000/svg"
 width="576.000000pt" height="288.000000pt" viewBox="0 0 576.000000 288.000000"
 preserveAspectRatio="xMidYMid meet">

<g transform="translate(0.000000,288.000000) scale(0.100000,-0.100000)"
fill="#000000" stroke="none">
<path d="M1778 2294 c-89 -79 -128 -153 -116 -219 4 -18 -4 -33 -32 -60 l-37
-36 -6 50 c-7 62 -70 201 -91 201 -21 0 -54 -58 -67 -119 -15 -72 2 -140 48
-189 21 -23 32 -41 26 -48 -4 -6 -23 -32 -40 -59 -18 -27 -33 -47 -33 -44 0
34 -27 134 -47 174 -31 61 -83 135 -95 135 -16 0 -37 -66 -46 -140 -15 -125 9
-222 73 -298 l26 -32 -34 -75 c-33 -72 -47 -85 -47 -41 0 52 -135 276 -166
276 -19 0 -75 -167 -81 -242 -10 -115 48 -218 143 -254 38 -14 43 -20 37 -38
-3 -12 -21 -75 -38 -140 l-32 -120 -12 61 c-15 80 -53 152 -113 218 -51 56
-137 125 -156 125 -17 0 -32 -68 -32 -147 0 -131 53 -249 153 -339 50 -45 105
-79 113 -71 2 2 -29 38 -70 79 -94 96 -141 188 -157 305 -8 59 -8 87 1 102 15
28 32 18 110 -62 65 -66 116 -157 125 -222 5 -36 3 -34 -13 16 -24 70 -70 156
-89 163 -28 11 -24 -23 11 -93 20 -39 48 -105 62 -148 14 -43 30 -83 35 -88 4
-6 -5 -82 -22 -175 -16 -91 -28 -174 -26 -185 1 -11 22 61 46 160 76 319 185
706 195 693 2 -1 -14 -70 -34 -153 -46 -181 -65 -294 -84 -482 -16 -156 -35
-214 -74 -223 -27 -6 -30 -21 -8 -35 26 -16 69 6 89 46 10 22 20 77 26 147 5
61 11 115 15 120 3 5 23 12 44 14 143 20 294 171 346 347 20 69 21 147 2 154
-23 9 -187 -105 -250 -173 -31 -34 -72 -85 -91 -113 -19 -29 -35 -46 -35 -40
0 13 11 71 36 189 l15 72 45 7 c169 25 369 156 430 282 27 54 27 56 8 70 -11
8 -30 11 -44 8 -73 -17 -276 -145 -361 -228 l-57 -56 29 81 c16 45 43 112 61
150 l33 69 62 4 c75 4 148 27 227 73 107 62 118 79 62 106 -50 24 -140 20
-209 -8 l-57 -24 21 37 c38 62 42 65 84 51 51 -17 117 -6 192 31 65 31 89 67
64 92 -13 13 -91 14 -165 3 l-49 -8 22 30 c12 18 33 32 53 36 47 9 113 83 133
147 26 88 17 149 -22 149 -7 0 -36 -21 -65 -46z m54 -54 c-2 -22 -9 -40 -16
-40 -6 0 -34 -22 -61 -50 -27 -27 -50 -48 -52 -46 -15 15 100 176 126 176 4 0
5 -18 3 -40z m-312 -146 c19 -53 19 -57 4 -69 -13 -9 -16 -21 -11 -51 l5 -39
-19 40 c-23 49 -26 175 -4 175 2 0 13 -25 25 -56z m264 25 c-10 -11 -28 -25
-39 -31 -11 -5 -4 4 15 21 41 36 51 40 24 10z m-431 -207 c20 -49 21 -55 8
-47 -6 3 -15 -4 -21 -15 -12 -22 -2 -98 19 -153 14 -35 4 -55 -14 -30 -30 43
-55 143 -55 220 0 43 3 88 6 101 7 23 7 23 23 -5 10 -15 25 -47 34 -71z m194
56 c-3 -8 -6 -5 -6 6 -1 11 2 17 5 13 3 -3 4 -12 1 -19z m283 -13 c0 -8 -114
-62 -147 -70 -18 -3 -46 -4 -63 0 -26 6 -28 9 -17 26 7 11 31 23 62 29 79 16
165 24 165 15z m-110 -205 c-42 -32 -107 -66 -92 -48 22 27 -1 28 -72 2 -74
-27 -87 -27 -58 -1 35 32 135 66 192 66 l55 1 -25 -20z m-333 -22 c-3 -7 -5
-2 -5 12 0 14 2 19 5 13 2 -7 2 -19 0 -25z m-231 -100 c28 -46 56 -95 62 -109
16 -40 23 -110 14 -149 l-8 -34 -22 52 c-12 28 -27 75 -32 103 -11 60 -16 69
-36 69 -21 0 -18 -86 6 -139 11 -23 33 -60 49 -80 20 -25 27 -42 21 -51 -13
-21 -84 30 -116 86 -36 62 -44 163 -19 263 9 39 20 71 24 71 3 0 29 -37 57
-82z m342 25 c-10 -2 -28 -2 -40 0 -13 2 -5 4 17 4 22 1 32 -1 23 -4z m203
-120 c-36 -69 -173 -179 -278 -224 -85 -36 -69 -13 24 37 95 50 122 82 61 69
-18 -4 -45 -13 -60 -20 -51 -24 -29 -5 57 51 75 49 176 102 198 103 4 1 3 -7
-2 -16z m-127 -320 c-35 -162 -122 -270 -267 -336 -40 -18 -33 -11 136 142 47
44 57 61 35 61 -14 0 -198 -165 -230 -206 -11 -14 -22 -23 -24 -21 -18 18 114
207 194 278 50 45 142 109 155 109 4 0 5 -12 1 -27z m-458 -270 c-3 -8 -6 -24
-7 -36 -1 -20 -2 -20 -9 3 -14 42 -12 60 6 53 8 -3 13 -12 10 -20z"/>
<path d="M1675 1920 c-8 -13 5 -13 25 0 13 8 13 10 -2 10 -9 0 -20 -4 -23 -10z"/>
<path d="M2090 1665 l0 -34 79 -3 80 -3 -80 -110 c-54 -74 -79 -118 -79 -137
l0 -28 130 0 130 0 0 35 0 35 -80 0 -80 0 80 110 c58 80 80 118 80 140 l0 30
-130 0 -130 0 0 -35z"/>
<path d="M2556 1691 c-6 -9 -126 -331 -126 -337 0 -2 18 -4 39 -4 36 0 40 3
51 35 l12 36 71 -3 c71 -3 71 -3 81 -35 8 -30 13 -33 47 -33 22 0 39 5 39 10
0 6 -28 84 -62 175 l-62 165 -43 0 c-23 0 -44 -4 -47 -9z m51 -209 c-21 -2
-41 -1 -44 2 -3 3 5 33 18 67 l23 63 21 -65 22 -64 -40 -3z"/>
<path d="M2840 1694 c0 -4 25 -46 55 -94 l55 -87 0 -82 0 -81 40 0 40 0 0 80
c0 86 -5 73 86 215 l35 55 -45 0 c-44 0 -45 -1 -76 -55 -17 -30 -36 -53 -40
-50 -5 3 -22 28 -37 55 -27 48 -30 50 -70 50 -24 0 -43 -3 -43 -6z"/>
<path d="M3210 1665 c0 -34 1 -35 40 -35 l40 0 0 -140 0 -140 40 0 40 0 0 140
0 140 40 0 c39 0 40 1 40 35 l0 35 -120 0 -120 0 0 -35z"/>
<path d="M3635 1686 c-114 -51 -136 -228 -39 -305 95 -75 248 -34 285 76 16
49 7 138 -17 171 -45 61 -158 90 -229 58z m125 -71 c37 -19 50 -43 50 -95 0
-53 -23 -87 -67 -99 -74 -21 -142 41 -129 117 12 75 81 111 146 77z"/>
<path d="M4010 1525 l0 -175 40 0 39 0 3 110 3 111 68 -111 68 -110 45 0 44 0
0 175 0 175 -40 0 -39 0 -3 -112 -3 -113 -70 113 -70 112 -42 0 -43 0 0 -175z"/>
<path d="M4492 1532 c-34 -93 -62 -172 -62 -176 0 -3 17 -6 38 -6 34 0 39 3
51 35 l12 35 69 0 69 0 12 -35 c12 -32 17 -35 51 -35 21 0 38 3 38 8 0 4 -29
81 -63 172 l-63 165 -44 3 -45 3 -63 -169z m131 15 c9 -30 17 -57 17 -60 0 -4
-20 -7 -44 -7 l-43 0 21 60 c12 33 24 60 27 60 3 0 13 -24 22 -53z"/>
<path d="M2360 1070 l0 -60 45 0 c33 0 45 4 45 15 0 10 -11 15 -35 15 -19 0
-35 5 -35 10 0 6 12 10 26 10 31 0 28 23 -4 28 -33 5 -26 22 8 22 17 0 30 5
30 10 0 6 -18 10 -40 10 l-40 0 0 -60z"/>
<path d="M2466 1108 c13 -43 39 -91 49 -91 11 0 53 79 54 101 2 27 -19 10 -37
-30 l-18 -42 -17 42 c-17 44 -44 60 -31 20z"/>
<path d="M2590 1069 l0 -60 43 3 c49 4 56 22 10 26 -38 4 -44 19 -10 24 27 4
26 22 -3 26 -31 5 -24 22 10 22 17 0 30 5 30 10 0 6 -18 10 -40 10 l-40 0 0
-61z"/>
<path d="M2700 1070 c0 -33 4 -60 10 -60 6 0 10 11 10 25 0 15 6 25 14 25 7 0
21 -11 30 -25 9 -14 21 -25 26 -25 15 0 12 28 -2 33 -10 3 -10 9 1 30 19 36 1
57 -50 57 l-39 0 0 -60z m70 25 c0 -9 -9 -15 -25 -15 -16 0 -25 6 -25 15 0 9
9 15 25 15 16 0 25 -6 25 -15z"/>
<path d="M2810 1123 c0 -5 9 -19 20 -33 11 -14 20 -37 20 -52 0 -16 5 -28 10
-28 6 0 10 11 10 25 0 14 10 39 22 55 26 36 14 55 -13 20 -16 -21 -20 -23 -29
-10 -5 8 -10 18 -10 23 0 4 -7 7 -15 7 -8 0 -15 -3 -15 -7z"/>
<path d="M2970 1070 l0 -60 34 0 c46 0 67 22 60 63 -10 55 -12 57 -54 57 l-40
0 0 -60z m65 30 c4 -6 -5 -10 -19 -10 -14 0 -26 5 -26 10 0 6 9 10 19 10 11 0
23 -4 26 -10z m5 -50 c0 -5 -11 -10 -25 -10 -14 0 -25 5 -25 10 0 6 11 10 25
10 14 0 25 -4 25 -10z"/>
<path d="M3090 1069 c0 -37 4 -58 10 -54 6 3 10 31 10 61 0 30 -4 54 -10 54
-6 0 -10 -27 -10 -61z"/>
<path d="M3120 1120 c0 -5 9 -10 19 -10 17 0 20 -8 23 -47 2 -27 8 -48 13 -48
6 0 11 21 13 48 2 33 7 47 18 47 7 0 14 5 14 10 0 6 -22 10 -50 10 -27 0 -50
-4 -50 -10z"/>
<path d="M3240 1069 l0 -60 43 3 c49 4 56 22 10 26 -39 4 -45 22 -7 22 31 0
28 23 -4 28 -33 5 -26 22 8 22 17 0 30 5 30 10 0 6 -18 10 -40 10 l-40 0 0
-61z"/>
<path d="M3380 1120 c0 -5 7 -10 14 -10 11 0 16 -14 18 -47 2 -27 8 -48 13
-48 6 0 11 21 13 48 3 39 6 47 23 47 10 0 19 5 19 10 0 6 -22 10 -50 10 -27 0
-50 -4 -50 -10z"/>
<path d="M3490 1070 l0 -60 45 0 c33 0 45 4 45 15 0 10 -11 15 -35 15 -19 0
-35 5 -35 10 0 6 12 10 26 10 31 0 28 23 -4 28 -33 5 -26 22 8 22 17 0 30 5
30 10 0 6 -18 10 -40 10 l-40 0 0 -60z"/>
<path d="M3600 1070 l0 -60 40 0 c29 0 40 4 40 15 0 10 -10 15 -30 15 -29 0
-30 2 -30 45 0 25 -4 45 -10 45 -6 0 -10 -27 -10 -60z"/>
<path d="M3700 1070 l0 -60 40 0 c29 0 40 4 40 15 0 10 -10 15 -30 15 -29 0
-30 2 -30 45 0 25 -4 45 -10 45 -6 0 -10 -27 -10 -60z"/>
<path d="M3794 1116 c-10 -26 4 -46 36 -52 30 -6 42 -23 18 -25 -18 -2 -21 -1
-40 6 -12 5 -18 2 -18 -8 0 -31 51 -36 80 -7 25 25 17 47 -21 55 -16 4 -29 11
-29 17 0 6 12 7 31 3 24 -6 30 -4 27 6 -7 21 -77 24 -84 5z"/>
<path d="M3944 1116 c-10 -26 4 -46 36 -52 16 -4 30 -10 30 -14 0 -14 -24 -18
-44 -8 -12 7 -22 6 -29 -1 -7 -7 -2 -14 16 -22 37 -17 77 1 77 35 0 21 -6 26
-35 32 -37 7 -39 26 -2 22 12 -2 24 2 27 7 3 6 -12 11 -33 13 -26 2 -39 -1
-43 -12z"/>
<path d="M4040 1120 c0 -5 9 -10 20 -10 17 0 20 -7 20 -50 0 -27 5 -50 10 -50
6 0 10 23 10 50 0 43 3 50 20 50 11 0 20 5 20 10 0 6 -22 10 -50 10 -27 0 -50
-4 -50 -10z"/>
<path d="M4168 1119 c-27 -15 -24 -74 4 -93 30 -21 54 -20 78 4 54 54 -15 128
-82 89z m76 -32 c9 -15 7 -22 -12 -37 -27 -23 -62 -12 -62 18 0 42 52 55 74
19z"/>
<path d="M4290 1070 c0 -33 4 -60 10 -60 6 0 10 9 10 19 0 33 22 36 42 8 11
-15 24 -27 29 -27 13 0 11 28 -2 32 -7 2 -7 12 2 30 17 38 -2 58 -52 58 l-39
0 0 -60z m71 25 c0 -5 -12 -11 -26 -13 -18 -2 -25 1 -25 13 0 12 7 15 25 13
14 -2 26 -7 26 -13z"/>
<path d="M4419 1094 c12 -19 21 -47 21 -60 0 -37 24 -25 28 14 2 17 10 36 18
42 16 14 19 40 4 40 -5 0 -15 -10 -21 -22 l-12 -22 -17 22 c-30 36 -44 26 -21
-14z"/>
</g>
</svg>
